<svg width="112" height="109" viewBox="0 0 112 109" fill="none" xmlns="http://www.w3.org/2000/svg">
<ellipse cx="55.5091" cy="54.5" rx="55.5091" ry="54.5" fill="#FFC93F"/>
<mask id="mask0" mask-type="alpha" maskUnits="userSpaceOnUse" x="34" y="32" width="47" height="45">
<path d="M34.48 32.2H55.664C60.5707 32.2 64.9227 33.1173 68.72 34.952C72.5173 36.7867 75.4613 39.3893 77.552 42.76C79.6427 46.1307 80.688 50.0773 80.688 54.6C80.688 59.1227 79.6427 63.0693 77.552 66.44C75.4613 69.8107 72.5173 72.4133 68.72 74.248C64.9227 76.0827 60.5707 77 55.664 77H34.48V32.2ZM55.152 66.888C58.992 66.888 62.064 65.8 64.368 63.624C66.7147 61.448 67.888 58.44 67.888 54.6C67.888 50.76 66.7147 47.752 64.368 45.576C62.064 43.4 58.992 42.312 55.152 42.312H47.152V66.888H55.152Z" fill="black"/>
</mask>
<g mask="url(#mask0)">
<path d="M34.48 32.2H55.664C60.5707 32.2 64.9227 33.1173 68.72 34.952C72.5173 36.7867 75.4613 39.3893 77.552 42.76C79.6427 46.1307 80.688 50.0773 80.688 54.6C80.688 59.1227 79.6427 63.0693 77.552 66.44C75.4613 69.8107 72.5173 72.4133 68.72 74.248C64.9227 76.0827 60.5707 77 55.664 77H34.48V32.2ZM55.152 66.888C58.992 66.888 62.064 65.8 64.368 63.624C66.7147 61.448 67.888 58.44 67.888 54.6C67.888 50.76 66.7147 47.752 64.368 45.576C62.064 43.4 58.992 42.312 55.152 42.312H47.152V66.888H55.152Z" fill="black"/>
<path d="M22.8829 4.18123C37.2031 99.6956 139.659 75.1177 124.896 88.0939C110.133 101.07 52.9993 104.675 33.8073 94.582C14.6153 84.4894 7.08619 79.5873 10.6293 60.4114C13.4638 45.0706 5.16725 9.66006 22.8829 4.18123Z" fill="#0074FC" stroke="#D7B0B0" stroke-opacity="0.8"/>
</g>
</svg>
