<svg width="589" height="580" viewBox="0 0 589 580" fill="none" xmlns="http://www.w3.org/2000/svg">
<ellipse cx="291.886" cy="289.708" rx="291.886" ry="289.708" fill="#F9D51C"/>
<g clip-path="url(#clip0)">
<path d="M301.241 493.151C318.93 493.151 333.269 478.832 333.269 461.169C333.269 443.505 318.93 429.186 301.241 429.186C283.552 429.186 269.212 443.505 269.212 461.169C269.212 478.832 283.552 493.151 301.241 493.151Z" fill="#001835"/>
<path d="M492.582 491.354C510.501 485.981 529.55 480.377 543.761 467.603C556.459 456.188 565.032 438.757 559.772 421.638C554.522 404.553 538.797 393.162 522.561 387.496C513.353 384.283 503.719 382.5 494.09 381.099C483.621 379.577 473.106 378.329 462.597 377.129C420.042 372.269 377.326 369.3 334.451 368.222C313.295 367.69 292.143 367.703 270.984 368.009C252.087 368.283 232.186 368.277 214.655 360.257C201.023 354.02 188.651 342.674 184.852 327.764C180.468 310.553 188.555 293.026 200.157 280.561C206.272 273.991 213.419 268.461 220.792 263.376C228.79 257.859 237.067 252.734 245.524 247.949C262.18 238.53 279.593 230.514 297.582 223.984C306.457 220.762 315.463 217.982 324.548 215.417C332.218 213.252 339.913 211.083 347.327 208.132C361.659 202.429 375.29 192.767 378.934 176.928C382.388 161.916 376.565 145.619 366.356 134.467C354.545 121.565 336.737 115.909 319.664 114.994C300.496 113.967 281.77 118.757 263.755 124.836C244.54 131.32 225.739 138.776 206.118 144.028C186.661 149.231 166.828 152.912 146.798 155.039C136.993 156.081 126.891 157.258 117.028 156.46C108.761 155.791 100.537 153.364 94.4447 147.505C89.2209 142.482 86.109 135.579 87.1788 128.293C87.3732 126.97 89.3862 127.533 89.1931 128.848C87.8907 137.716 93.9277 145.888 101.367 150.074C109.965 154.912 120.427 154.918 129.999 154.365C150.754 153.113 171.369 150.138 191.63 145.469C211.538 140.928 230.735 134.437 249.911 127.504C268.123 120.918 286.742 114.491 306.198 113.065C323.08 111.827 340.839 114.283 355.546 123.093C368.472 130.835 377.977 143.747 381.005 158.564C383.965 173.043 379.866 187.616 368.89 197.72C357.526 208.181 341.944 212.654 327.422 216.773C309.004 221.997 290.981 228.104 273.536 236.034C255.852 244.049 238.893 253.569 222.846 264.49C207.357 275.06 192.07 288.359 187.172 307.215C184.89 315.999 185.311 325.315 189.129 333.611C192.524 340.988 198.116 347.193 204.63 351.979C220.171 363.399 239.759 365.743 258.531 365.976C279.616 366.238 300.701 365.528 321.792 365.874C364.775 366.578 407.67 369.19 450.477 373.711C461.203 374.845 471.916 376.098 482.615 377.47C492.239 378.705 501.895 379.932 511.357 382.125C528.18 386.024 544.551 393.522 555.007 407.765C559.648 413.939 562.524 421.256 563.326 428.934C564.058 436.946 562.094 444.973 558.466 452.101C550.436 467.877 535.396 477.911 519.423 484.503C510.868 488.034 501.994 490.709 493.138 493.365C491.847 493.752 491.296 491.74 492.582 491.354L492.582 491.354Z" fill="#F2F2F2"/>
<path d="M88.5278 145.167C97.7569 145.167 105.238 137.697 105.238 128.481C105.238 119.265 97.7569 111.794 88.5278 111.794C79.2988 111.794 71.8171 119.265 71.8171 128.481C71.8171 137.697 79.2988 145.167 88.5278 145.167Z" fill="#F2F2F2"/>
<path d="M204.458 176.802C213.687 176.802 221.169 169.331 221.169 160.116C221.169 150.9 213.687 143.429 204.458 143.429C195.229 143.429 187.747 150.9 187.747 160.116C187.747 169.331 195.229 176.802 204.458 176.802Z" fill="#F2F2F2"/>
<path d="M302.633 113.533C311.862 113.533 319.344 106.062 319.344 96.8462C319.344 87.6305 311.862 80.1597 302.633 80.1597C293.404 80.1597 285.922 87.6305 285.922 96.8462C285.922 106.062 293.404 113.533 302.633 113.533Z" fill="#F2F2F2"/>
<path d="M363.905 184.45C373.135 184.45 380.616 176.979 380.616 167.764C380.616 158.548 373.135 151.077 363.905 151.077C354.676 151.077 347.195 158.548 347.195 167.764C347.195 176.979 354.676 184.45 363.905 184.45Z" fill="#F2F2F2"/>
<path d="M281.049 266.492C290.278 266.492 297.759 259.021 297.759 249.806C297.759 240.59 290.278 233.119 281.049 233.119C271.82 233.119 264.338 240.59 264.338 249.806C264.338 259.021 271.82 266.492 281.049 266.492Z" fill="#F2F2F2"/>
<path d="M175.911 306.123C185.14 306.123 192.621 298.652 192.621 289.437C192.621 280.221 185.14 272.75 175.911 272.75C166.682 272.75 159.2 280.221 159.2 289.437C159.2 298.652 166.682 306.123 175.911 306.123Z" fill="#F2F2F2"/>
<path d="M287.315 368.002C296.544 368.002 304.026 360.531 304.026 351.315C304.026 342.1 296.544 334.629 287.315 334.629C278.086 334.629 270.604 342.1 270.604 351.315C270.604 360.531 278.086 368.002 287.315 368.002Z" fill="#F2F2F2"/>
<path d="M407.075 402.766C416.304 402.766 423.786 395.295 423.786 386.079C423.786 376.863 416.304 369.393 407.075 369.393C397.846 369.393 390.364 376.863 390.364 386.079C390.364 395.295 397.846 402.766 407.075 402.766Z" fill="#F2F2F2"/>
<path d="M547.027 395.118C556.256 395.118 563.737 387.647 563.737 378.431C563.737 369.215 556.256 361.745 547.027 361.745C537.798 361.745 530.316 369.215 530.316 378.431C530.316 387.647 537.798 395.118 547.027 395.118Z" fill="#F2F2F2"/>
<path d="M297.81 127.44C247.753 127.793 206.767 168.413 206.056 218.393C206.05 218.855 206.047 222.099 206.047 226.343C206.047 232.565 208.523 238.533 212.929 242.933C217.335 247.333 223.311 249.805 229.542 249.806H229.542C232.631 249.805 235.69 249.197 238.543 248.015C241.396 246.834 243.989 245.102 246.172 242.92C248.355 240.738 250.086 238.148 251.266 235.297C252.446 232.446 253.052 229.392 253.049 226.307C253.047 223.42 253.045 221.422 253.045 221.3C253.044 213.575 255.056 205.983 258.884 199.271C262.712 192.559 268.224 186.957 274.877 183.017C281.531 179.077 289.097 176.934 296.831 176.8C304.566 176.665 312.202 178.543 318.989 182.25C325.776 185.956 331.48 191.363 335.54 197.938C339.599 204.513 341.875 212.03 342.143 219.75C342.411 227.47 340.661 235.126 337.067 241.966C333.472 248.806 328.157 254.594 321.643 258.76L321.651 258.77C321.651 258.77 288.21 280.268 278.015 309.758L278.023 309.76C276.231 315.802 275.322 322.07 275.326 328.371C275.326 330.962 275.479 353.625 275.774 372.019C275.877 378.366 278.474 384.418 283.006 388.869C287.538 393.32 293.64 395.814 299.997 395.813H299.997C303.191 395.813 306.354 395.182 309.303 393.957C312.252 392.731 314.929 390.936 317.181 388.674C319.433 386.411 321.214 383.727 322.423 380.775C323.631 377.822 324.243 374.66 324.224 371.471C324.121 354.625 324.066 335.01 324.066 333.586C324.066 315.478 341.56 297.436 355.93 285.67C372.478 272.121 384.385 253.657 389.168 232.83C390.227 228.542 390.81 224.151 390.908 219.735C390.908 207.559 388.495 195.502 383.808 184.261C379.122 173.019 372.253 162.815 363.6 154.236C354.946 145.657 344.677 138.872 333.386 134.274C322.095 129.675 310.004 127.352 297.81 127.44Z" fill="#001835"/>
<path d="M588.171 494.028H1.70043C1.48097 494.027 1.27072 493.94 1.11576 493.784C0.960802 493.629 0.873779 493.419 0.873779 493.2C0.873779 492.981 0.960802 492.771 1.11576 492.615C1.27072 492.46 1.48097 492.373 1.70043 492.372H588.171C588.391 492.372 588.602 492.459 588.757 492.615C588.913 492.77 589 492.98 589 493.2C589 493.42 588.913 493.63 588.757 493.785C588.602 493.941 588.391 494.028 588.171 494.028Z" fill="#3F3D56"/>
<path d="M438.446 269.966C449.983 269.966 459.335 260.627 459.335 249.108C459.335 237.588 449.983 228.25 438.446 228.25C426.91 228.25 417.558 237.588 417.558 249.108C417.558 260.627 426.91 269.966 438.446 269.966Z" fill="#2F2E41"/>
<path d="M399.847 484.898H391.311L387.25 452.02H399.849L399.847 484.898Z" fill="#A0616A"/>
<path d="M385.214 482.461H401.676V492.812H374.848C374.848 491.453 375.116 490.107 375.637 488.851C376.158 487.595 376.922 486.454 377.884 485.493C378.847 484.532 379.989 483.769 381.247 483.249C382.504 482.729 383.852 482.461 385.214 482.461Z" fill="#2F2E41"/>
<path d="M465.993 484.898H457.458L453.396 452.02H465.995L465.993 484.898Z" fill="#A0616A"/>
<path d="M451.36 482.461H467.823V492.812H440.995C440.995 491.453 441.263 490.107 441.784 488.851C442.305 487.595 443.068 486.454 444.031 485.493C444.993 484.532 446.136 483.769 447.393 483.249C448.651 482.729 449.999 482.461 451.36 482.461Z" fill="#2F2E41"/>
<path d="M435.272 270.088C444.717 270.088 452.373 262.442 452.373 253.011C452.373 243.58 444.717 235.935 435.272 235.935C425.827 235.935 418.171 243.58 418.171 253.011C418.171 262.442 425.827 270.088 435.272 270.088Z" fill="#A0616A"/>
<path d="M445.465 325.177L453.117 307.622C454.975 303.503 455.508 298.911 454.641 294.477C453.774 290.044 451.551 285.988 448.278 282.87C447.606 282.206 446.892 281.586 446.14 281.014C442.364 278.064 437.712 276.457 432.918 276.446C429.695 276.458 426.512 277.165 423.588 278.518C423.337 278.629 423.094 278.747 422.843 278.865C422.362 279.095 421.889 279.345 421.429 279.602C418.432 281.321 415.881 283.719 413.982 286.603C412.083 289.487 410.89 292.776 410.498 296.205L407.121 324.461C406.271 326.679 375.969 406.774 386.567 467.924C386.68 468.577 386.998 469.176 387.477 469.636C387.956 470.095 388.569 470.389 389.226 470.475L399.97 471.935C400.755 472.042 401.551 471.849 402.198 471.393C402.845 470.938 403.295 470.255 403.458 469.481L421.485 383.678C421.597 383.144 421.885 382.664 422.303 382.314C422.721 381.963 423.244 381.763 423.79 381.745C424.335 381.726 424.871 381.891 425.311 382.212C425.752 382.534 426.072 382.993 426.22 383.518L451.69 473.75C451.871 474.406 452.263 474.984 452.805 475.396C453.347 475.807 454.009 476.03 454.691 476.03C454.894 476.029 455.096 476.011 455.296 475.975L468.421 473.451C469.184 473.309 469.866 472.887 470.334 472.268C470.801 471.649 471.021 470.878 470.949 470.107C469.02 448.63 458.771 341.05 445.465 325.177Z" fill="#2F2E41"/>
<path d="M368.812 267.222C368.693 268.238 368.799 269.267 369.121 270.237C369.444 271.207 369.976 272.094 370.679 272.837C371.382 273.579 372.24 274.159 373.192 274.535C374.144 274.911 375.167 275.074 376.188 275.012L385.748 297.951L392.978 287.247L382.792 267.105C382.575 265.398 381.738 263.83 380.44 262.698C379.142 261.566 377.473 260.949 375.75 260.963C374.027 260.978 372.369 261.623 371.09 262.776C369.811 263.93 369.001 265.512 368.812 267.222L368.812 267.222Z" fill="#A0616A"/>
<path d="M434.324 348.275C435.34 348.153 436.318 347.811 437.187 347.272C438.057 346.732 438.797 346.009 439.356 345.153C439.916 344.297 440.28 343.329 440.425 342.317C440.569 341.305 440.489 340.274 440.191 339.296L460.303 324.669L448.195 320.141L430.952 334.726C429.34 335.335 428.008 336.513 427.208 338.037C426.408 339.561 426.196 341.325 426.611 342.996C427.027 344.666 428.042 346.125 429.463 347.098C430.885 348.071 432.614 348.49 434.324 348.275Z" fill="#A0616A"/>
<path d="M401.537 313.243C400.766 313.242 399.997 313.167 399.241 313.017C397.411 312.669 395.696 311.878 394.245 310.712C392.794 309.546 391.653 308.041 390.922 306.331L377.529 290.025C377.246 289.68 377.04 289.279 376.925 288.848C376.81 288.417 376.788 287.967 376.861 287.527C376.935 287.087 377.101 286.668 377.35 286.298C377.598 285.928 377.923 285.615 378.303 285.38L387.831 279.491C388.183 279.273 388.574 279.127 388.983 279.062C389.391 278.996 389.809 279.012 390.211 279.108C390.613 279.205 390.993 279.379 391.327 279.623C391.661 279.866 391.944 280.174 392.159 280.527L401.598 296.055L419.674 282.715C421.113 281.962 422.776 281.75 424.358 282.12C425.941 282.489 427.337 283.415 428.293 284.727C429.248 286.04 429.699 287.652 429.562 289.269C429.426 290.886 428.711 292.4 427.549 293.535L409.507 309.968C407.387 312.067 404.522 313.244 401.537 313.243Z" fill="#2F2E41"/>
<path d="M450.381 337.767C450.357 337.767 450.332 337.767 450.308 337.766C449.868 337.756 449.436 337.653 449.039 337.465C448.642 337.277 448.289 337.008 448.002 336.675L439.531 326.806C439.243 326.47 439.029 326.077 438.904 325.652C438.779 325.227 438.746 324.781 438.806 324.343C438.867 323.904 439.02 323.483 439.255 323.108C439.491 322.733 439.803 322.412 440.172 322.167L456.034 311.607L441.664 294.356C440.828 292.964 440.522 291.319 440.8 289.72C441.079 288.122 441.924 286.676 443.182 285.649C444.44 284.621 446.026 284.08 447.65 284.123C449.275 284.167 450.829 284.792 452.03 285.886L469.495 302.929C470.87 304.183 471.919 305.751 472.553 307.499C473.187 309.247 473.387 311.122 473.135 312.964C472.883 314.806 472.188 316.56 471.108 318.075C470.028 319.589 468.597 320.819 466.936 321.66L452.661 336.785C452.368 337.095 452.015 337.342 451.623 337.511C451.231 337.68 450.808 337.767 450.381 337.767Z" fill="#2F2E41"/>
<path d="M430.924 301.405C430.788 301.405 430.652 301.396 430.517 301.379C429.927 301.307 429.37 301.068 428.912 300.69C428.454 300.312 428.115 299.811 427.934 299.245L421.568 279.757C421.408 279.265 421.433 278.731 421.637 278.255C421.841 277.779 422.211 277.393 422.678 277.168L422.884 277.07C423.072 276.981 423.257 276.894 423.446 276.809C426.415 275.435 429.646 274.718 432.918 274.708C437.166 274.715 441.319 275.961 444.867 278.293C445.343 278.609 445.675 279.099 445.793 279.658C445.91 280.216 445.803 280.798 445.495 281.279L433.553 299.959C433.273 300.403 432.885 300.768 432.425 301.021C431.965 301.274 431.449 301.406 430.924 301.405Z" fill="#E6E6E6"/>
<path d="M454.915 239.796C458.69 239.796 461.75 236.74 461.75 232.971C461.75 229.201 458.69 226.146 454.915 226.146C451.14 226.146 448.08 229.201 448.08 232.971C448.08 236.74 451.14 239.796 454.915 239.796Z" fill="#2F2E41"/>
<path d="M431.484 225.469C426.682 225.469 422.078 227.373 418.683 230.763C415.288 234.153 413.38 238.751 413.38 243.546V251.194H422.801L427.306 243.546L428.658 251.194H457.246L449.587 243.546C449.587 238.751 447.68 234.153 444.285 230.763C440.889 227.373 436.285 225.469 431.484 225.469Z" fill="#2F2E41"/>
<path d="M458.428 228.295C459.184 225.935 460.749 223.917 462.848 222.595C464.946 221.273 467.445 220.732 469.903 221.068C474.259 221.795 477.703 225.291 479.755 229.196C481.807 233.101 482.755 237.472 484.134 241.661C485.514 245.85 487.47 250.062 490.953 252.774C494.436 255.486 499.78 256.222 503.2 253.432C502.809 256.339 501.513 259.05 499.495 261.182C497.477 263.313 494.838 264.757 491.953 265.309C489.068 265.861 486.082 265.493 483.418 264.258C480.753 263.023 478.545 260.982 477.106 258.425C475.301 255.218 474.835 251.46 474.3 247.821C473.765 244.182 473.069 240.417 470.915 237.434C468.76 234.45 464.726 232.502 461.303 233.861L458.428 228.295Z" fill="#2F2E41"/>
<path d="M236.176 238.708C229.945 238.708 223.969 236.235 219.563 231.835C215.157 227.436 212.681 221.468 212.681 215.246C212.68 211.002 212.684 207.757 212.69 207.296C212.888 192.76 216.554 178.481 223.384 165.643C212.163 180.983 205.992 199.426 205.727 218.42C205.721 218.882 205.718 222.126 205.718 226.37C205.718 232.592 208.194 238.56 212.6 242.96C217.006 247.36 222.982 249.832 229.213 249.833C234.334 249.831 239.314 248.16 243.396 245.074C247.479 241.988 250.442 237.656 251.834 232.736C247.532 236.588 241.955 238.715 236.176 238.708Z" fill="#3F3D56"/>
<path d="M299.402 176.878C306.606 177.222 313.619 179.306 319.838 182.952C326.058 186.598 331.298 191.697 335.109 197.811C338.921 203.924 341.189 210.871 341.72 218.053C342.251 225.235 341.028 232.438 338.157 239.044C342.31 234.174 345.362 228.466 347.106 222.311C348.85 216.155 349.245 209.697 348.262 203.375C347.28 197.054 344.944 191.018 341.414 185.68C337.884 180.342 333.243 175.826 327.807 172.441C322.37 169.057 316.267 166.882 309.913 166.066C303.559 165.25 297.104 165.812 290.987 167.713C284.87 169.614 279.236 172.81 274.468 177.082C269.7 181.355 265.911 186.604 263.358 192.472C267.769 187.29 273.313 183.189 279.563 180.486C285.812 177.782 292.6 176.548 299.402 176.878Z" fill="#3F3D56"/>
<path d="M306.631 384.715C300.274 384.716 294.172 382.222 289.64 377.771C285.108 373.32 282.511 367.268 282.408 360.921C282.113 342.527 281.96 319.864 281.96 317.274C281.956 310.973 282.864 304.704 284.657 298.663L284.649 298.661C285.707 295.628 286.986 292.677 288.474 289.83C283.905 295.91 280.269 302.635 277.686 309.785L277.694 309.787C275.902 315.828 274.993 322.097 274.997 328.398C274.997 330.988 275.15 353.651 275.445 372.046C275.548 378.392 278.146 384.444 282.677 388.895C287.209 393.347 293.311 395.841 299.668 395.839C304.909 395.838 310.009 394.141 314.202 391.001C318.396 387.861 321.456 383.448 322.925 378.424C318.471 382.479 312.659 384.723 306.631 384.715Z" fill="#3F3D56"/>
<path d="M88.9791 485.215L97.5148 485.214L101.576 452.336L88.9771 452.337L88.9791 485.215Z" fill="#FD9696"/>
<path d="M113.978 493.128L87.15 493.13L87.1495 482.779L103.612 482.778C106.361 482.778 108.998 483.869 110.942 485.81C112.886 487.751 113.978 490.383 113.978 493.128L113.978 493.128Z" fill="#2F2E41"/>
<path d="M58.3429 485.215L66.8786 485.214L70.94 452.336L58.3408 452.337L58.3429 485.215Z" fill="#FD9696"/>
<path d="M83.3418 493.128L56.5137 493.13L56.5133 482.779L72.9759 482.778C75.725 482.778 78.3615 483.869 80.3055 485.81C82.2495 487.751 83.3417 490.383 83.3418 493.128L83.3418 493.128Z" fill="#2F2E41"/>
<path d="M65.8022 475.103L57.4643 474.665C57.0344 474.642 56.6132 474.535 56.2252 474.349C55.8372 474.162 55.49 473.901 55.2039 473.58C54.9177 473.259 54.6982 472.884 54.5582 472.477C54.4181 472.071 54.3602 471.641 54.3878 471.211L64.3534 361.035L110.246 373.401L114.667 372.196L100.84 469.732C100.723 470.466 100.358 471.137 99.806 471.636C99.2543 472.135 98.5487 472.43 97.8059 472.475L88.8177 472.893C88.3683 472.918 87.9186 472.849 87.497 472.692C87.0754 472.534 86.6911 472.291 86.3684 471.978C86.0457 471.664 85.7916 471.288 85.6222 470.871C85.4527 470.455 85.3717 470.008 85.384 469.559L87.0126 411.019C87.0202 410.748 86.9261 410.485 86.7486 410.28C86.5712 410.075 86.3234 409.944 86.054 409.913C85.7847 409.881 85.5133 409.952 85.2934 410.11C85.0734 410.269 84.9209 410.504 84.8659 410.769L69.16 472.518C69.0117 473.25 68.6136 473.909 68.0335 474.381C67.4533 474.853 66.7271 475.11 65.9786 475.108C65.9202 475.108 65.8614 475.106 65.8022 475.103Z" fill="#2F2E41"/>
<path d="M90.5115 270.887C99.9563 270.887 107.613 263.241 107.613 253.81C107.613 244.379 99.9563 236.733 90.5115 236.733C81.0667 236.733 73.4102 244.379 73.4102 253.81C73.4102 263.241 81.0667 270.887 90.5115 270.887Z" fill="#FD9696"/>
<path d="M62.039 303.98L63.9193 344.491L64.5991 359.23C64.6262 359.872 64.8443 360.491 65.2257 361.008C65.607 361.525 66.1341 361.917 66.7397 362.133L110.839 378.085C111.195 378.217 111.573 378.283 111.953 378.28C112.387 378.282 112.818 378.197 113.218 378.029C113.619 377.861 113.981 377.615 114.285 377.304C114.588 376.993 114.825 376.625 114.982 376.221C115.14 375.816 115.214 375.384 115.2 374.951L113.392 302.109C113.273 296.133 111.07 290.385 107.163 285.857C103.255 281.329 97.8877 278.304 91.986 277.304C91.5594 277.239 91.1254 277.174 90.6915 277.116C87.0319 276.663 83.3173 277.015 79.8089 278.149C76.3005 279.283 73.0836 281.171 70.3845 283.68C67.5897 286.247 65.3936 289.396 63.9515 292.903C62.5094 296.411 61.8565 300.192 62.039 303.98L62.039 303.98Z" fill="#CCCCCC"/>
<path d="M131.905 370.001C130.862 369.678 129.909 369.116 129.123 368.36C128.336 367.603 127.737 366.674 127.374 365.645C127.011 364.617 126.893 363.518 127.031 362.436C127.169 361.354 127.558 360.32 128.167 359.415L113.213 339.558L126.118 338.76L138.34 357.739C139.649 358.749 140.559 360.187 140.912 361.801C141.265 363.414 141.038 365.1 140.27 366.563C139.502 368.026 138.243 369.173 136.714 369.801C135.184 370.43 133.482 370.501 131.905 370.001H131.905Z" fill="#FD9696"/>
<path d="M121.391 355.822C120.995 355.661 120.634 355.424 120.331 355.123C120.027 354.823 119.786 354.465 119.622 354.071L97.0912 300.469C96.6491 299.42 96.4185 298.294 96.4125 297.155C96.4065 296.016 96.6252 294.888 97.0562 293.834C97.4871 292.78 98.1219 291.821 98.9242 291.012C99.7265 290.203 100.681 289.56 101.732 289.119C102.783 288.678 103.911 288.449 105.051 288.444C106.192 288.439 107.322 288.658 108.377 289.089C109.432 289.52 110.392 290.155 111.201 290.957C112.011 291.759 112.654 292.712 113.095 293.762L135.625 347.364C135.958 348.159 135.962 349.053 135.635 349.85C135.309 350.648 134.679 351.284 133.884 351.618L123.882 355.81C123.488 355.976 123.065 356.063 122.637 356.065C122.21 356.067 121.786 355.984 121.391 355.822L121.391 355.822Z" fill="#CCCCCC"/>
<path d="M85.0133 353.931L106.653 312.556C107.07 311.76 107.787 311.162 108.645 310.893C109.503 310.624 110.433 310.706 111.231 311.121L142.641 327.502C143.438 327.919 144.037 328.634 144.306 329.491C144.576 330.348 144.493 331.277 144.078 332.073L122.438 373.448C122.021 374.244 121.304 374.842 120.446 375.111C119.588 375.38 118.658 375.298 117.86 374.883L86.45 358.502C85.6531 358.085 85.0543 357.37 84.785 356.513C84.5157 355.656 84.5977 354.727 85.0133 353.931Z" fill="#3F3D56"/>
<path d="M99.5259 335.028C99.1412 334.007 98.5229 333.091 97.7204 332.351C96.9178 331.611 95.9533 331.069 94.9037 330.768C93.8541 330.467 92.7485 330.415 91.6752 330.616C90.6018 330.817 89.5904 331.266 88.7217 331.927L67.9876 318.192L67.9524 331.103L87.6472 342.166C88.7344 343.411 90.2257 344.234 91.8597 344.49C93.4936 344.747 95.1658 344.421 96.5829 343.569C98.0001 342.717 99.0717 341.395 99.6098 339.833C100.148 338.271 100.118 336.57 99.5259 335.028Z" fill="#FD9696"/>
<path d="M73.3108 337.931L56.3657 324.528C54.5325 323.914 52.8761 322.864 51.5387 321.469C50.2012 320.075 49.2227 318.377 48.687 316.522C48.1513 314.666 48.0745 312.709 48.4631 310.817C48.8518 308.926 49.6943 307.157 50.9184 305.662L66.3041 285.527C67.3733 284.222 68.877 283.346 70.5403 283.057C72.2036 282.768 73.9154 283.087 75.3628 283.954C76.8102 284.822 77.8965 286.181 78.4232 287.783C78.9499 289.384 78.8817 291.122 78.2311 292.678L66.0575 312.562L83.9477 321.035C84.3637 321.232 84.7331 321.515 85.0315 321.866C85.3299 322.216 85.5505 322.625 85.6787 323.067C85.8069 323.508 85.8398 323.972 85.7752 324.427C85.7107 324.882 85.5501 325.319 85.3041 325.707L78.0825 337.12C77.8384 337.505 77.5159 337.834 77.1361 338.087C76.7563 338.34 76.3275 338.511 75.8776 338.587C75.8597 338.591 75.8417 338.593 75.8238 338.596C75.3817 338.663 74.9305 338.638 74.4983 338.524C74.0661 338.409 73.6619 338.208 73.3108 337.931Z" fill="#CCCCCC"/>
<path d="M77.5893 265.245C77.516 265.03 77.4927 264.802 77.5213 264.577C77.5499 264.353 77.6297 264.137 77.7544 263.948C77.8792 263.759 78.0456 263.601 78.2411 263.486C78.4365 263.371 78.6557 263.302 78.8819 263.285C79.345 263.31 79.7983 263.428 80.2143 263.633C80.6303 263.838 81.0004 264.125 81.3022 264.477C81.9211 265.19 82.6416 265.807 83.4406 266.31C84.2679 266.727 85.3898 266.668 85.8614 265.874C86.3043 265.128 86.0009 264.13 85.7328 263.264C85.0505 261.061 84.6688 258.776 84.5979 256.471C84.5206 253.898 84.8842 251.214 86.3105 249.207C88.1514 246.617 91.4431 245.634 94.5582 245.705C97.6734 245.777 100.738 246.737 103.824 247.344C104.889 247.553 106.141 247.661 106.854 246.836C107.611 245.96 107.333 244.541 107.011 243.357C106.174 240.286 105.287 237.11 103.345 234.63C101.244 232.053 98.2433 230.366 94.9469 229.909C91.7822 229.518 88.5697 229.882 85.5734 230.972C80.6917 232.508 76.3961 235.496 73.2612 239.536C70.0296 243.833 68.6331 249.233 69.3773 254.554C70.1043 259.189 72.564 263.377 76.2606 266.273L77.5893 265.245Z" fill="#2F2E41"/>
<path d="M294.184 485.35C289.634 483.371 285.607 480.364 282.421 476.565C279.234 472.766 276.976 468.279 275.823 463.459C274.67 458.639 274.655 453.618 275.779 448.791C276.903 443.964 279.135 439.464 282.298 435.646C278.63 438.32 275.574 441.743 273.332 445.687C271.09 449.631 269.713 454.006 269.294 458.522C268.875 463.038 269.422 467.591 270.9 471.879C272.377 476.168 274.752 480.094 277.865 483.396C280.978 486.698 284.759 489.301 288.956 491.033C293.154 492.764 297.673 493.584 302.212 493.439C306.751 493.293 311.208 492.185 315.286 490.188C319.363 488.191 322.969 485.351 325.864 481.857C321.349 485.152 316.049 487.208 310.49 487.821C304.932 488.434 299.31 487.582 294.184 485.35Z" fill="#3F3D56"/>
</g>
<defs>
<clipPath id="clip0">
<rect width="588.129" height="413.868" fill="white" transform="translate(0.871338 80.1597)"/>
</clipPath>
</defs>
</svg>
