<svg width="392" height="427" viewBox="0 0 392 427" fill="none" xmlns="http://www.w3.org/2000/svg">
<path d="M41 138.267C41 132.057 43.8852 126.199 48.8084 122.413L195.808 9.37491C202.996 3.84759 213.004 3.84758 220.192 9.3749L367.192 122.413C372.115 126.199 375 132.057 375 138.267V405C375 416.046 366.046 425 355 425H61C49.9543 425 41 416.046 41 405V138.267Z" fill="#D78E00"/>
<rect x="61.5841" y="60.6942" width="294.41" height="357.051" rx="10" fill="#F3F3F3"/>
<path d="M40.8562 199.71C40.8298 183.013 60.0665 173.637 73.2025 183.944L209.234 290.685L343.205 389.523C358.724 400.972 350.648 425.587 331.363 425.617L61.2138 426.044C50.1681 426.061 41.1996 417.121 41.1822 406.075L40.8562 199.71Z" fill="#FFF616"/>
<path d="M375.146 197.572C375.172 181.151 356.491 171.698 343.275 181.445L195.255 290.611L52.4011 389.665C36.3078 400.824 44.1822 426.07 63.7658 426.101L354.784 426.56C365.83 426.578 374.798 417.638 374.816 406.592L375.146 197.572Z" fill="#F9D51C"/>
<rect x="89.325" y="92.0145" width="234.454" height="11.6332" rx="5.81661" fill="#F9D51C"/>
<rect x="89.325" y="116.176" width="234.454" height="11.6332" rx="5.81661" fill="#F9D51C"/>
<rect x="89.325" y="140.337" width="234.454" height="11.6332" rx="5.81661" fill="#F9D51C"/>
</svg>
