<svg width="39" height="39" viewBox="0 0 39 39" fill="none" xmlns="http://www.w3.org/2000/svg">
<path d="M1.21872 12.1875H37.7812C38.454 12.1875 38.9999 11.6414 38.9999 10.9688C38.9999 10.296 38.4539 9.75005 37.7812 9.75005H1.21872C0.545941 9.75005 0 10.2961 0 10.9688C0 11.6414 0.546043 12.1875 1.21872 12.1875Z" fill="#EBEBEB"/>
<path d="M37.7812 18.2813H1.21872C0.545941 18.2813 0 18.8273 0 19.5C0 20.1727 0.546043 20.7187 1.21872 20.7187H37.7812C38.454 20.7187 38.9999 20.1727 38.9999 19.5C38.9999 18.8273 38.454 18.2813 37.7812 18.2813Z" fill="#EBEBEB"/>
<path d="M37.7812 26.8125H13.4062C12.7334 26.8125 12.1875 27.3586 12.1875 28.0312C12.1875 28.704 12.7335 29.25 13.4062 29.25H37.7812C38.4539 29.25 38.9999 28.7039 38.9999 28.0312C39 27.3585 38.4539 26.8125 37.7812 26.8125Z" fill="#EBEBEB"/>
</svg>
