<svg width="502" height="326" viewBox="0 0 502 326" fill="none" xmlns="http://www.w3.org/2000/svg">
<g clip-path="url(#clip0)">
<path d="M502 153.056C502.001 166.026 497.107 178.518 488.296 188.035C479.485 197.553 467.407 203.394 454.477 204.391C454.041 204.424 453.599 204.457 453.157 204.477V155.61C453.157 155.122 453.048 154.639 452.838 154.199C452.628 153.758 452.322 153.369 451.942 153.062C451.899 153.017 451.85 152.977 451.797 152.943C451.749 152.904 451.698 152.869 451.645 152.838C451.181 152.539 450.65 152.362 450.1 152.321C449.55 152.281 448.999 152.379 448.497 152.607L447.949 151.405C448.548 151.133 449.198 150.991 449.856 150.989L412.26 118.599C412.551 118.269 412.854 117.945 413.158 117.622C420.246 110.15 429.411 104.975 439.47 102.766C449.529 100.558 460.019 101.416 469.585 105.232C479.151 109.047 487.353 115.643 493.131 124.169C498.91 132.694 501.999 142.756 502 153.056Z" fill="#F2F2F2"/>
<path d="M13.0542 188.163C12.8672 187.208 12.8919 186.223 13.1267 185.279C13.3614 184.334 13.8004 183.452 14.4127 182.696C15.025 181.939 15.7958 181.326 16.6707 180.899C17.5457 180.473 18.5035 180.243 19.4767 180.227L49.1538 144.896L56.5628 154.37L26.3177 187.251C26.2367 188.888 25.5581 190.438 24.4105 191.608C23.263 192.778 21.7261 193.486 20.0912 193.599C18.4563 193.711 16.837 193.22 15.54 192.218C14.243 191.217 13.3586 189.774 13.0542 188.163H13.0542Z" fill="#FF7777"/>
<path d="M153.98 144.678C153.772 144.979 153.588 145.295 153.43 145.624L121.026 150.257L116.105 144.009L105.707 150.203L115.482 165.444L155.002 153.794C156.045 154.738 157.35 155.342 158.745 155.526C160.14 155.71 161.557 155.465 162.809 154.823C164.062 154.182 165.089 153.175 165.754 151.935C166.42 150.696 166.692 149.283 166.536 147.885C166.379 146.487 165.8 145.17 164.877 144.109C163.953 143.047 162.728 142.293 161.365 141.944C160.002 141.596 158.566 141.671 157.246 142.16C155.927 142.648 154.788 143.527 153.98 144.678Z" fill="#FF7777"/>
<path d="M98.6279 262.723L104.362 268.432L129.114 249.031L120.651 240.604L98.6279 262.723Z" fill="#FF7777"/>
<path d="M110.12 284.77L92.0977 266.824L99.0308 259.861L110.09 270.873C111.004 271.783 111.73 272.865 112.227 274.056C112.723 275.248 112.98 276.525 112.983 277.815C112.985 279.106 112.734 280.384 112.243 281.577C111.751 282.771 111.03 283.856 110.119 284.77L110.12 284.77Z" fill="#2F2E41"/>
<path d="M68.1471 317.491H76.2392L80.0886 286.277H68.1458L68.1471 317.491Z" fill="#FF7777"/>
<path d="M91.8452 325.005L66.4132 325.006L66.4128 315.179L82.0188 315.179C83.3091 315.179 84.5869 315.433 85.779 315.926C86.9712 316.42 88.0545 317.144 88.9669 318.056C89.8794 318.969 90.6032 320.052 91.0971 321.244C91.591 322.437 91.8452 323.714 91.8452 325.005Z" fill="#2F2E41"/>
<path d="M66.3879 293.383L57.1707 225.402C55.7283 215.128 56.1759 204.677 58.4916 194.565C60.3831 186.438 62.9383 180.808 66.0866 177.834C66.5835 177.367 67.2195 177.077 67.8972 177.007L98.3296 173.836C98.9158 173.776 99.5069 173.885 100.034 174.148C100.561 174.411 101.002 174.819 101.306 175.324L102.307 176.991C102.428 177.194 102.526 177.409 102.599 177.634L109.033 197.582C109.129 197.883 109.284 198.163 109.489 198.404C109.694 198.645 109.945 198.842 110.227 198.986C120.357 204.158 153.264 221.619 151.381 229.152C149.611 236.23 133.045 247.707 128.01 251.055C127.497 251.398 126.893 251.579 126.276 251.574C125.66 251.57 125.059 251.38 124.551 251.029L116.193 245.31C115.785 245.031 115.45 244.658 115.215 244.223C114.981 243.787 114.854 243.302 114.845 242.808C114.836 242.313 114.946 241.824 115.165 241.381C115.385 240.937 115.707 240.553 116.105 240.26L121.869 236.012C122.221 235.752 122.496 235.401 122.664 234.996C122.832 234.591 122.887 234.149 122.822 233.715C122.757 233.282 122.575 232.874 122.296 232.537C122.017 232.199 121.65 231.944 121.237 231.799L90.2818 220.936C89.9343 220.814 89.5634 220.774 89.1976 220.817C88.8319 220.861 88.481 220.988 88.1721 221.189C87.8631 221.39 87.6043 221.658 87.4155 221.975C87.2267 222.291 87.1129 222.646 87.083 223.013L81.3754 292.777C81.3124 293.525 80.9807 294.225 80.4416 294.747C79.9025 295.27 79.1924 295.579 78.4429 295.618L69.6119 296.06C69.5581 296.062 69.5048 296.064 69.4515 296.064C68.702 296.067 67.9772 295.796 67.4132 295.302C66.8491 294.809 66.4846 294.126 66.3879 293.383Z" fill="#2F2E41"/>
<path d="M80.3449 117.553C89.2983 117.553 96.5563 110.294 96.5563 101.34C96.5563 92.3861 89.2983 85.1274 80.3449 85.1274C71.3916 85.1274 64.1335 92.3861 64.1335 101.34C64.1335 110.294 71.3916 117.553 80.3449 117.553Z" fill="#FF7777"/>
<path d="M65.182 175.056L53.2489 131.513L53.4533 131.376C53.7095 131.203 79.4303 114.218 109.544 127.905L110.09 128.219L103.019 173.413C102.865 174.445 102.356 175.39 101.579 176.086C100.803 176.782 99.8076 177.185 98.7656 177.226L69.669 178.346C69.6103 178.348 69.5518 178.349 69.4937 178.349C68.5128 178.351 67.5586 178.03 66.7791 177.434C65.9995 176.839 65.4381 176.003 65.182 175.056Z" fill="#E6E6E6"/>
<path d="M52.7948 159.861L42.8564 148.431C42.3777 147.882 42.1082 147.181 42.0953 146.453C42.0825 145.724 42.3271 145.015 42.7861 144.449L53.1757 131.614L61.1513 133.789L65.3796 148.59L57.6699 159.605C57.401 159.991 57.047 160.311 56.6352 160.539C56.2234 160.767 55.7647 160.898 55.2945 160.922C55.2388 160.924 55.1836 160.926 55.1283 160.926C54.6856 160.926 54.248 160.832 53.8453 160.648C53.4426 160.464 53.0843 160.196 52.7948 159.861Z" fill="#E6E6E6"/>
<path d="M107.753 157.48C107.283 157.456 106.824 157.325 106.413 157.097C106.001 156.869 105.647 156.549 105.378 156.163L97.6682 145.148L101.377 129.568L108.72 127.565L110.09 128.219L120.262 141.007C120.721 141.573 120.965 142.283 120.953 143.011C120.94 143.739 120.67 144.44 120.191 144.989L110.253 156.419C109.964 156.754 109.605 157.022 109.203 157.206C108.8 157.39 108.362 157.484 107.92 157.484C107.864 157.484 107.809 157.482 107.753 157.48Z" fill="#E6E6E6"/>
<path d="M453.157 152.376C453.163 152.54 453.106 152.701 452.998 152.825C452.884 152.958 452.722 153.04 452.548 153.054C452.373 153.067 452.201 153.011 452.068 152.897L449.856 150.99L412.26 118.599L306.812 27.7372C306.21 27.2222 305.444 26.9397 304.652 26.9409C303.86 26.9421 303.095 27.2269 302.495 27.7438L160.493 151.122L159.212 152.231C159.163 152.274 159.107 152.31 159.047 152.336C158.941 152.383 158.825 152.401 158.71 152.389C158.545 152.371 158.393 152.294 158.281 152.171C158.224 152.106 158.18 152.031 158.152 151.949C158.124 151.867 158.112 151.78 158.118 151.694C158.123 151.607 158.146 151.523 158.184 151.445C158.222 151.367 158.276 151.298 158.341 151.24L158.519 151.082L301.63 26.747C302.471 26.0247 303.542 25.6265 304.651 25.624C305.759 25.6216 306.832 26.0152 307.676 26.7338L413.158 117.622L452.926 151.894C452.995 151.954 453.051 152.028 453.091 152.111C453.131 152.194 453.153 152.284 453.157 152.376Z" fill="#3F3D56"/>
<path d="M372.981 171.868L371.245 167.089L365.265 150.587L352.381 115.054L337.979 75.3363L312.006 3.6965C311.496 2.29946 310.453 1.16147 309.106 0.53174C307.758 -0.0979951 306.217 -0.168152 304.818 0.336631L154.651 54.7876C153.254 55.2971 152.115 56.3399 151.486 57.6874C150.856 59.0349 150.786 60.5772 151.291 61.9761L188.115 163.538L188.742 165.274L227.395 182.793L238.259 187.717L240.021 188.516L286.02 209.368L287.802 208.721L317.973 197.783L363.483 181.281L369.615 179.057C371.013 178.548 372.152 177.505 372.783 176.158C373.414 174.811 373.485 173.268 372.981 171.868Z" fill="#E6E6E6"/>
<path d="M310.012 87.2709C309.263 85.2148 307.73 83.5397 305.747 82.6129C303.765 81.6861 301.496 81.5832 299.439 82.3268L240.021 103.879L211.329 114.282C210.31 114.65 209.373 115.216 208.572 115.947C207.771 116.678 207.123 117.559 206.663 118.541C206.203 119.523 205.941 120.586 205.892 121.669C205.843 122.752 206.008 123.834 206.378 124.853C206.747 125.872 207.314 126.808 208.046 127.608C208.777 128.408 209.659 129.056 210.641 129.515C211.623 129.974 212.686 130.235 213.769 130.283C214.852 130.331 215.934 130.165 216.953 129.794L240.021 121.431L305.069 97.8456C307.125 97.0964 308.8 95.5625 309.726 93.5802C310.653 91.5979 310.756 89.3289 310.012 87.2709Z" fill="white"/>
<path d="M320.474 116.13C319.725 114.074 318.191 112.399 316.209 111.472C314.227 110.545 311.958 110.443 309.9 111.186L299.835 114.836L240.021 136.527L221.791 143.135C219.735 143.882 218.06 145.415 217.134 147.397C216.208 149.378 216.106 151.647 216.851 153.703C217.596 155.76 219.128 157.437 221.109 158.365C223.089 159.293 225.357 159.397 227.415 158.653L240.021 154.079L315.531 126.698C315.702 126.639 315.867 126.566 316.032 126.494C317.949 125.652 319.475 124.114 320.3 122.189C321.125 120.265 321.187 118.099 320.474 116.13Z" fill="white"/>
<path d="M331.048 145.293C330.301 143.238 328.768 141.562 326.787 140.636C324.806 139.709 322.538 139.606 320.481 140.349L292.251 150.587L270.397 158.515L240.021 169.525L232.365 172.304C230.595 172.949 229.099 174.178 228.123 175.789C227.147 177.4 226.751 179.296 226.999 181.163C227.074 181.718 227.207 182.265 227.395 182.793L238.259 187.717L240.021 187.077H240.034L295.155 167.089L326.104 155.868C328.161 155.12 329.838 153.587 330.765 151.604C331.692 149.621 331.794 147.351 331.048 145.293H331.048Z" fill="white"/>
<path d="M269.182 58.9002C268.433 56.8442 266.899 55.1691 264.917 54.2423C262.935 53.3155 260.666 53.2126 258.608 53.9561L224.484 66.3263C222.428 67.0735 220.753 68.6064 219.826 70.5882C218.9 72.5699 218.799 74.8384 219.544 76.8951C220.289 78.9517 221.82 80.6283 223.801 81.5565C225.782 82.4847 228.05 82.5885 230.107 81.845L240.906 77.9307L248.054 75.3365L264.239 69.4683C266.294 68.7206 267.969 67.188 268.896 65.2067C269.823 63.2254 269.926 60.9574 269.182 58.9002Z" fill="white"/>
<path d="M405.363 75.3364H245.632C244.69 75.3374 243.763 75.5755 242.937 76.0288C242.111 76.4822 241.413 77.1362 240.906 77.9306C240.327 78.83 240.019 79.8774 240.021 80.9472V188.516L286.02 209.368L292.502 212.306L302.739 216.946C303.338 217.217 303.989 217.357 304.646 217.357C305.304 217.357 305.955 217.217 306.554 216.946L316.791 212.306L348.83 197.784L378.69 184.245L410.973 169.617V80.9472C410.972 79.4594 410.381 78.0329 409.329 76.9808C408.277 75.9288 406.85 75.3374 405.363 75.3364Z" fill="#001835"/>
<path d="M372.36 150.587H278.634C276.503 150.588 274.455 151.414 272.919 152.892C271.383 154.37 270.479 156.385 270.396 158.515C270.385 158.622 270.381 158.73 270.383 158.838C270.386 161.025 271.257 163.122 272.803 164.669C274.35 166.216 276.447 167.086 278.634 167.089H372.36C374.548 167.089 376.647 166.22 378.194 164.673C379.742 163.125 380.611 161.026 380.611 158.838C380.611 156.65 379.742 154.551 378.194 153.004C376.647 151.456 374.548 150.587 372.36 150.587Z" fill="white"/>
<path d="M377.7 183.248C376.213 181.976 374.318 181.278 372.36 181.281H278.634C276.446 181.281 274.347 182.151 272.8 183.698C271.253 185.245 270.383 187.344 270.383 189.532C270.383 191.721 271.253 193.819 272.8 195.367C274.347 196.914 276.446 197.784 278.634 197.784H348.83L378.69 184.245C378.389 183.885 378.058 183.552 377.7 183.248Z" fill="white"/>
<path d="M292.502 212.306L302.739 216.946C303.338 217.217 303.989 217.357 304.646 217.357C305.304 217.357 305.954 217.217 306.554 216.946L316.791 212.306H292.502Z" fill="white"/>
<path d="M351.397 115.411C350.816 113.822 349.762 112.451 348.376 111.481C346.99 110.512 345.339 109.992 343.648 109.991H307.346C305.761 109.993 304.21 110.45 302.878 111.309C301.546 112.169 300.49 113.393 299.835 114.836C299.346 115.905 299.093 117.067 299.095 118.242C299.098 120.43 299.969 122.527 301.515 124.073C303.062 125.62 305.159 126.49 307.346 126.494H343.648C344.976 126.494 346.283 126.174 347.46 125.56C348.638 124.947 349.649 124.059 350.41 122.971C351.171 121.883 351.657 120.628 351.829 119.312C352.001 117.995 351.853 116.657 351.397 115.411Z" fill="white"/>
<path d="M345.628 197.784L313.59 212.306L306.006 215.745C305.579 215.937 305.115 216.037 304.646 216.037C304.178 216.037 303.714 215.937 303.287 215.745L295.703 212.306H292.502L302.739 216.946C303.338 217.217 303.989 217.357 304.646 217.357C305.304 217.357 305.955 217.217 306.554 216.946L316.791 212.306L348.83 197.784H345.628ZM345.628 197.784L313.59 212.306L306.006 215.745C305.579 215.937 305.115 216.037 304.646 216.037C304.178 216.037 303.714 215.937 303.287 215.745L295.703 212.306H292.502L302.739 216.946C303.338 217.217 303.989 217.357 304.646 217.357C305.304 217.357 305.955 217.217 306.554 216.946L316.791 212.306L348.83 197.784H345.628ZM345.628 197.784L313.59 212.306L306.006 215.745C305.579 215.937 305.115 216.037 304.646 216.037C304.178 216.037 303.714 215.937 303.287 215.745L295.703 212.306H292.502L302.739 216.946C303.338 217.217 303.989 217.357 304.646 217.357C305.304 217.357 305.955 217.217 306.554 216.946L316.791 212.306L348.83 197.784H345.628ZM453.157 152.376C452.913 152.134 452.646 151.917 452.358 151.729C451.71 151.309 450.966 151.059 450.195 151.002C449.424 150.946 448.652 151.084 447.949 151.406L377.7 183.248L345.628 197.784L313.59 212.306L306.006 215.745C305.579 215.937 305.115 216.037 304.646 216.037C304.178 216.037 303.714 215.937 303.287 215.745L295.703 212.306L287.802 208.721L240.034 187.077L240.021 187.07L226.998 181.163L188.115 163.538L161.344 151.406C161.072 151.28 160.786 151.184 160.492 151.122C159.846 150.96 159.171 150.947 158.519 151.082C157.475 151.296 156.537 151.863 155.862 152.688C155.188 153.513 154.818 154.545 154.816 155.61V321.379C154.817 322.604 155.305 323.779 156.171 324.645C157.037 325.511 158.211 325.999 159.436 326H449.856C451.081 325.999 452.256 325.511 453.122 324.645C453.988 323.779 454.475 322.604 454.477 321.379V155.61C454.479 154.401 454.005 153.239 453.157 152.376V152.376ZM453.157 321.379C453.156 322.255 452.808 323.094 452.19 323.713C451.571 324.332 450.732 324.68 449.856 324.68H159.436C158.561 324.68 157.722 324.332 157.103 323.713C156.484 323.094 156.136 322.255 156.136 321.379V155.61C156.136 155.059 156.275 154.516 156.539 154.032C156.803 153.547 157.184 153.137 157.648 152.838C157.974 152.629 158.333 152.477 158.71 152.389C158.821 152.365 158.934 152.348 159.047 152.336C159.176 152.318 159.306 152.309 159.436 152.31C159.906 152.311 160.369 152.412 160.796 152.607L188.742 165.274L227.395 182.793L238.259 187.717L240.021 188.516L286.02 209.368L292.502 212.306L302.739 216.946C303.338 217.217 303.989 217.357 304.646 217.357C305.304 217.357 305.954 217.217 306.554 216.946L316.791 212.306L348.83 197.784L378.69 184.245L448.497 152.607C448.999 152.379 449.55 152.281 450.1 152.322C450.65 152.362 451.181 152.54 451.645 152.838C451.698 152.869 451.749 152.905 451.797 152.944C451.85 152.978 451.898 153.017 451.942 153.062C452.322 153.37 452.628 153.758 452.838 154.199C453.048 154.64 453.157 155.122 453.157 155.61L453.157 321.379ZM345.628 197.784L313.59 212.306L306.006 215.745C305.579 215.937 305.115 216.037 304.646 216.037C304.178 216.037 303.714 215.937 303.287 215.745L295.703 212.306H292.502L302.739 216.946C303.338 217.217 303.989 217.357 304.646 217.357C305.304 217.357 305.955 217.217 306.554 216.946L316.791 212.306L348.83 197.784H345.628ZM345.628 197.784L313.59 212.306L306.006 215.745C305.579 215.937 305.115 216.037 304.646 216.037C304.178 216.037 303.714 215.937 303.287 215.745L295.703 212.306H292.502L302.739 216.946C303.338 217.217 303.989 217.357 304.646 217.357C305.304 217.357 305.955 217.217 306.554 216.946L316.791 212.306L348.83 197.784H345.628ZM238.259 187.717L240.021 188.516V187.077L238.259 187.717ZM345.628 197.784L313.59 212.306L306.006 215.745C305.579 215.937 305.115 216.037 304.646 216.037C304.178 216.037 303.714 215.937 303.287 215.745L295.703 212.306H292.502L302.739 216.946C303.338 217.217 303.989 217.357 304.646 217.357C305.304 217.357 305.955 217.217 306.554 216.946L316.791 212.306L348.83 197.784H345.628Z" fill="#3F3D56"/>
<path d="M115.855 326H41.27C41.095 326 40.9271 325.93 40.8033 325.807C40.6795 325.683 40.61 325.515 40.61 325.34C40.61 325.165 40.6795 324.997 40.8033 324.873C40.9271 324.749 41.095 324.68 41.27 324.68H115.855C116.03 324.68 116.198 324.749 116.322 324.873C116.446 324.997 116.515 325.165 116.515 325.34C116.515 325.515 116.446 325.683 116.322 325.807C116.198 325.93 116.03 326 115.855 326Z" fill="#3F3D56"/>
<path d="M74.181 113.196C72.9633 112.578 71.9508 111.621 71.2661 110.439C70.5813 109.258 70.2537 107.903 70.3228 106.539C70.3919 105.175 70.8548 103.861 71.6555 102.755C72.4562 101.648 73.5603 100.798 74.8343 100.306C79.7262 98.4185 85.2104 102.271 90.3382 101.176C95.4492 100.084 98.4058 93.9735 97.1858 88.8913C95.9659 83.809 91.5257 79.981 86.6296 78.1529C83.4319 76.9619 80.0074 76.5052 76.6094 76.8167C73.2114 77.1282 69.9269 78.1998 66.999 79.9524C64.1014 81.7562 61.6881 84.2406 59.969 87.1894C58.2499 90.1383 57.277 93.4625 57.1349 96.873C57.0683 100.287 57.9023 103.657 59.5527 106.646C61.2032 109.635 63.6119 112.136 66.5364 113.897C67.8397 114.649 69.3567 115.252 70.8225 114.913C72.0258 114.523 73.1595 113.943 74.181 113.196Z" fill="#2F2E41"/>
<path d="M68.9275 79.5573C64.6138 73.8354 58.7907 69.1347 52.0148 66.8042C45.2388 64.4736 37.4956 64.6607 31.1318 67.9542C24.7679 71.2477 20.022 77.7887 19.5266 84.9376C18.7022 96.8355 28.8679 106.949 29.9112 118.83C30.2419 122.596 29.6307 126.385 28.1327 129.856C26.6347 133.326 24.2969 136.37 21.3299 138.712C18.3629 141.055 14.8599 142.622 11.1364 143.273C7.41292 143.925 3.58588 143.64 0 142.444C2.55407 144.546 5.51531 146.098 8.6977 147.001C11.8801 147.904 15.2149 148.14 18.4926 147.692C21.7649 147.201 24.8869 145.988 27.6322 144.14C30.3775 142.293 32.6773 139.858 34.3648 137.011C36.6527 133.036 37.5922 128.418 37.9571 123.846C38.5303 116.616 37.7541 109.343 35.6682 102.397C34.528 98.6073 32.9816 94.7074 33.7047 90.8165C34.1169 88.7927 35.1146 86.9346 36.5738 85.4731C38.0331 84.0116 39.8896 83.0111 41.9127 82.596C45.1821 81.9833 48.5248 82.9812 51.6466 84.1297C54.7684 85.2781 57.9159 86.6071 61.2413 86.6832C64.5668 86.7592 68.1888 85.2369 69.474 82.1686L68.9275 79.5573Z" fill="#2F2E41"/>
</g>
<defs>
<clipPath id="clip0">
<rect width="502" height="326" fill="white"/>
</clipPath>
</defs>
</svg>
