<svg width="461" height="890" viewBox="0 0 461 890" fill="none" xmlns="http://www.w3.org/2000/svg">
<g clip-path="url(#clip0)">
<path d="M49.7108 445.02C49.7108 690.531 55.278 889.558 62.1454 889.558C69.0129 889.558 74.58 690.531 74.5801 445.02C74.5801 199.509 69.0129 0.482177 62.1455 0.482177C55.278 0.482177 49.7108 199.509 49.7108 445.02Z" fill="white"/>
<path d="M196.883 681.927C196.875 681.366 196.867 680.805 196.867 680.236C196.867 679.667 196.875 679.105 196.883 678.544C197.559 648.786 216.152 627.218 235.659 632.708L283.248 646.095L295.29 649.479L294.267 709.455L282.487 713.099L236.121 727.448C216.506 733.522 197.559 711.954 196.883 681.927Z" fill="#2F2E41"/>
<path opacity="0.2" d="M282.487 713.099C276.641 702.873 273.63 691.272 273.764 679.494C273.898 667.716 277.172 656.186 283.248 646.095L295.29 649.479L294.267 709.455L282.487 713.099Z" fill="black"/>
<path d="M234.08 710.568C243.736 713.159 257.666 721.674 274.46 745.555C303.755 787.203 325.72 762.358 326.64 761.281C328.57 759.023 330.738 759.356 331.479 762.057C331.792 763.625 331.767 765.243 331.404 766.801C331.041 768.359 330.35 769.822 329.376 771.091C328.26 772.439 301.693 803.55 268.642 756.554C238.892 714.259 219.472 723.251 219.286 723.355C217.209 724.488 215.547 722.671 215.57 719.292C215.592 715.913 217.292 712.252 219.367 711.115C219.806 710.876 225.091 708.155 234.08 710.568Z" fill="#2F2E41"/>
<path d="M189.947 652.554C189.947 651.645 190.126 650.746 190.474 649.906C190.821 649.066 191.331 648.303 191.974 647.661C192.616 647.018 193.379 646.508 194.219 646.161C195.059 645.813 195.958 645.634 196.867 645.634L226.855 645.634C228.691 645.634 230.451 646.363 231.749 647.661C233.047 648.959 233.776 650.719 233.776 652.554C233.776 654.39 233.047 656.15 231.749 657.448C230.451 658.745 228.691 659.475 226.855 659.475L196.867 659.475C195.958 659.475 195.059 659.296 194.219 658.948C193.379 658.6 192.616 658.09 191.974 657.448C191.331 656.805 190.821 656.042 190.474 655.203C190.126 654.363 189.947 653.463 189.947 652.554Z" fill="#2F2E41"/>
<path d="M261.14 658.622C260.314 658.242 259.572 657.703 258.954 657.036C258.337 656.37 257.857 655.588 257.542 654.735C257.226 653.883 257.082 652.977 257.117 652.069C257.152 651.161 257.366 650.268 257.746 649.443L270.28 622.2C271.048 620.534 272.446 619.242 274.167 618.607C275.887 617.972 277.79 618.045 279.456 618.812C281.122 619.579 282.416 620.975 283.053 622.695C283.69 624.415 283.618 626.318 282.853 627.985L270.319 655.228C269.939 656.053 269.401 656.796 268.734 657.413C268.067 658.031 267.285 658.511 266.433 658.826C265.58 659.141 264.674 659.285 263.766 659.25C262.858 659.215 261.966 659.002 261.14 658.622Z" fill="#2F2E41"/>
<path d="M261.14 701.849C260.314 702.229 259.572 702.768 258.954 703.435C258.337 704.102 257.857 704.884 257.542 705.736C257.227 706.588 257.082 707.494 257.117 708.403C257.152 709.311 257.366 710.203 257.746 711.029L270.28 738.272C271.047 739.939 272.445 741.233 274.167 741.87C275.888 742.506 277.792 742.433 279.459 741.666C281.127 740.899 282.421 739.501 283.057 737.779C283.694 736.058 283.621 734.154 282.854 732.487L270.319 705.244C269.94 704.418 269.401 703.675 268.734 703.058C268.067 702.44 267.285 701.96 266.433 701.645C265.58 701.33 264.674 701.186 263.766 701.221C262.858 701.256 261.966 701.469 261.14 701.849Z" fill="#2F2E41"/>
<path d="M189.947 707.917C189.947 708.826 190.126 709.726 190.474 710.565C190.821 711.405 191.331 712.168 191.974 712.81C192.616 713.453 193.379 713.963 194.219 714.31C195.059 714.658 195.958 714.837 196.867 714.837L226.855 714.837C228.691 714.837 230.451 714.108 231.749 712.81C233.047 711.512 233.776 709.752 233.776 707.917C233.776 706.081 233.047 704.321 231.749 703.023C230.451 701.726 228.691 700.996 226.855 700.996L196.867 700.996C195.958 700.996 195.059 701.175 194.219 701.523C193.379 701.871 192.616 702.381 191.974 703.023C191.331 703.666 190.821 704.429 190.474 705.268C190.126 706.108 189.947 707.008 189.947 707.917Z" fill="#2F2E41"/>
<path d="M384.089 736.838C384.843 737.436 385.714 737.867 386.646 738.104C387.578 738.341 388.55 738.377 389.498 738.211L411.655 734.445L433.812 730.678C435.008 730.475 436.13 729.96 437.064 729.186C437.998 728.412 438.713 727.405 439.135 726.267C439.557 725.13 439.672 723.901 439.468 722.705C439.265 721.508 438.75 720.387 437.976 719.452L423.636 702.147L414.996 691.721C416.233 684.768 416.34 677.661 415.314 670.674L423.636 660.631L437.976 643.326C438.75 642.391 439.265 641.27 439.468 640.073C439.672 638.877 439.557 637.648 439.135 636.51C438.713 635.373 437.998 634.366 437.064 633.592C436.13 632.817 435.008 632.303 433.812 632.099L411.655 628.333L389.498 624.567C388.333 624.366 387.136 624.469 386.024 624.868C376.129 618.413 364.685 614.728 352.883 614.195C341.081 613.662 329.351 616.301 318.915 621.838C308.478 627.375 299.716 635.607 293.539 645.678C287.362 655.749 283.997 667.291 283.793 679.103C283.589 690.916 286.553 702.567 292.379 712.845C298.204 723.124 306.676 731.653 316.915 737.547C327.154 743.441 338.786 746.484 350.599 746.359C362.413 746.235 373.977 742.947 384.089 736.838Z" fill="#2F2E41"/>
<path d="M428.896 641.591C428.896 641.181 428.822 640.774 428.678 640.39C428.473 639.824 428.12 639.324 427.657 638.94C427.194 638.556 426.637 638.303 426.043 638.205L399.173 633.638C398.581 633.537 397.973 633.594 397.41 633.803C396.846 634.012 396.348 634.366 395.965 634.828C395.581 635.291 395.326 635.846 395.226 636.439C395.125 637.031 395.182 637.639 395.391 638.203L404.871 663.756C405.08 664.319 405.433 664.817 405.896 665.201C406.358 665.584 406.913 665.839 407.506 665.939C408.098 666.04 408.706 665.983 409.269 665.774C409.832 665.565 410.331 665.212 410.714 664.749L410.715 664.749L428.105 643.763C428.615 643.154 428.895 642.386 428.896 641.591Z" fill="white"/>
<path d="M428.896 721.186C428.895 720.392 428.615 719.623 428.105 719.014L410.714 698.029C410.331 697.566 409.832 697.213 409.269 697.004C408.706 696.795 408.098 696.738 407.506 696.839C406.913 696.939 406.358 697.194 405.896 697.577C405.433 697.961 405.08 698.459 404.871 699.022L395.391 724.575C395.182 725.139 395.125 725.747 395.226 726.339C395.326 726.932 395.581 727.487 395.965 727.95C396.348 728.412 396.846 728.766 397.41 728.975C397.973 729.184 398.581 729.241 399.173 729.14L426.043 724.573C426.637 724.475 427.194 724.222 427.657 723.838C428.12 723.454 428.473 722.954 428.678 722.388C428.822 722.004 428.896 721.597 428.896 721.186Z" fill="white"/>
<path d="M331.429 680.236C331.429 685.332 335.56 689.463 340.656 689.463C345.752 689.463 349.883 685.332 349.883 680.236C349.883 675.14 345.752 671.008 340.656 671.008C335.56 671.008 331.429 675.14 331.429 680.236Z" fill="white"/>
<path d="M342.963 680.236C342.963 683.633 343.996 686.387 345.27 686.387C346.544 686.387 347.577 683.633 347.577 680.236C347.577 676.838 346.544 674.084 345.27 674.084C343.996 674.084 342.963 676.838 342.963 680.236Z" fill="#2F2E41"/>
<path d="M335.274 675.622L335.274 684.08L324.893 684.08C324.338 684.08 323.788 683.971 323.275 683.758C322.762 683.546 322.295 683.234 321.903 682.841C321.51 682.449 321.199 681.983 320.986 681.469C320.773 680.956 320.664 680.406 320.664 679.851C320.664 678.729 321.11 677.654 321.903 676.861C322.696 676.067 323.772 675.622 324.893 675.622L335.274 675.622L335.274 675.622Z" fill="#FF6584"/>
<path d="M439.934 680.749C439.015 680.305 438.085 679.875 437.136 679.47C426.007 674.698 413.777 673.088 401.792 674.819C403.048 675.685 404.357 676.594 405.68 677.52C417.182 675.538 429.005 676.652 439.934 680.749Z" fill="#2F2E41"/>
<path d="M431.476 687.669C430.557 687.226 429.627 686.795 428.678 686.39C417.549 681.618 405.319 680.009 393.334 681.739C394.59 682.605 395.899 683.515 397.222 684.44C408.724 682.458 420.547 683.573 431.476 687.669Z" fill="#2F2E41"/>
<path d="M265.425 709.005L277.823 708.03L290.221 707.055C290.891 707.003 291.535 706.775 292.088 706.394C292.641 706.014 293.085 705.495 293.374 704.889C293.663 704.283 293.788 703.611 293.735 702.942C293.682 702.273 293.454 701.629 293.074 701.075L286.031 690.826L280.888 683.341C281.448 682.863 281.897 682.269 282.206 681.6C282.514 680.931 282.674 680.203 282.674 679.467C282.674 678.73 282.514 678.002 282.206 677.333C281.897 676.664 281.448 676.07 280.888 675.592L286.031 668.107L293.074 657.858C293.454 657.304 293.682 656.661 293.735 655.991C293.788 655.322 293.663 654.65 293.374 654.044C293.085 653.438 292.641 652.919 292.088 652.539C291.535 652.158 290.891 651.93 290.221 651.878L277.823 650.903L265.425 649.928C264.756 649.875 264.084 650 263.478 650.289C262.872 650.578 262.353 651.022 261.973 651.575C261.592 652.129 261.364 652.772 261.312 653.442C261.259 654.111 261.384 654.783 261.673 655.389L267.028 666.613L271.427 675.836C270.947 676.31 270.565 676.876 270.304 677.499C270.044 678.122 269.909 678.791 269.909 679.467C269.909 680.142 270.044 680.811 270.304 681.434C270.565 682.057 270.947 682.623 271.427 683.097L267.028 692.32L261.673 703.544C261.384 704.151 261.259 704.822 261.312 705.491C261.364 706.161 261.592 706.805 261.973 707.358C262.353 707.911 262.872 708.355 263.478 708.644C264.084 708.933 264.756 709.058 265.425 709.005Z" fill="#001835"/>
<path d="M348.345 667.933C348.345 669.207 349.378 670.24 350.652 670.24C351.926 670.24 352.959 669.207 352.959 667.933C352.959 666.659 351.926 665.626 350.652 665.626C349.378 665.626 348.345 666.659 348.345 667.933Z" fill="white"/>
<path d="M348.345 692.538C348.345 693.812 349.378 694.845 350.652 694.845C351.926 694.845 352.959 693.812 352.959 692.538C352.959 691.264 351.926 690.232 350.652 690.232C349.378 690.232 348.345 691.264 348.345 692.538Z" fill="white"/>
<path d="M217.262 233.908C217.254 234.469 217.247 235.03 217.247 235.599C217.247 236.168 217.254 236.729 217.262 237.291C217.939 267.048 236.531 288.617 256.039 283.126L303.628 269.739L315.669 266.356L314.647 206.38L302.867 202.735L256.5 188.387C236.885 182.313 217.939 203.881 217.262 233.908Z" fill="#2F2E41"/>
<path opacity="0.2" d="M302.867 202.735C297.021 212.962 294.01 224.562 294.144 236.341C294.277 248.119 297.551 259.649 303.628 269.74L315.669 266.356L314.647 206.38L302.867 202.735Z" fill="black"/>
<path d="M260.1 197.982C267.719 191.508 276.665 177.852 281.626 149.082C290.282 98.9041 320.765 111.961 322.058 112.54C324.769 113.755 326.585 112.526 326.099 109.769C325.711 108.217 324.996 106.765 324.002 105.512C323.007 104.259 321.756 103.233 320.333 102.503C318.748 101.761 281.423 85.011 271.66 141.63C262.87 192.587 241.47 192.769 241.257 192.756C238.895 192.62 238.171 194.974 239.637 198.018C241.103 201.062 244.206 203.643 246.568 203.783C247.067 203.811 253.008 204.01 260.1 197.982Z" fill="#2F2E41"/>
<path d="M210.327 263.28C210.327 264.189 210.506 265.089 210.853 265.929C211.201 266.768 211.711 267.531 212.353 268.174C212.996 268.817 213.759 269.326 214.599 269.674C215.438 270.022 216.338 270.201 217.247 270.201L247.235 270.201C249.069 270.199 250.827 269.468 252.123 268.171C253.419 266.873 254.147 265.114 254.147 263.28C254.147 261.446 253.419 259.688 252.123 258.39C250.827 257.092 249.069 256.362 247.235 256.36L217.247 256.36C216.338 256.36 215.438 256.539 214.599 256.887C213.759 257.235 212.996 257.744 212.353 258.387C211.711 259.03 211.201 259.792 210.853 260.632C210.506 261.472 210.327 262.372 210.327 263.28Z" fill="#2F2E41"/>
<path d="M281.52 257.213C280.694 257.593 279.951 258.131 279.334 258.798C278.716 259.465 278.236 260.247 277.921 261.099C277.606 261.952 277.462 262.858 277.497 263.766C277.532 264.674 277.745 265.566 278.125 266.392L290.659 293.635C291.039 294.462 291.577 295.205 292.244 295.824C292.911 296.442 293.693 296.923 294.546 297.239C295.398 297.555 296.305 297.699 297.214 297.665C298.123 297.63 299.016 297.416 299.842 297.036C300.668 296.656 301.411 296.117 302.029 295.449C302.646 294.782 303.126 293.999 303.441 293.146C303.756 292.293 303.9 291.386 303.864 290.477C303.829 289.569 303.614 288.676 303.233 287.85L290.699 260.607C290.319 259.781 289.78 259.039 289.113 258.421C288.447 257.804 287.665 257.324 286.812 257.009C285.96 256.694 285.054 256.549 284.146 256.584C283.238 256.619 282.345 256.833 281.52 257.213Z" fill="#2F2E41"/>
<path d="M281.52 213.985C280.694 213.606 279.951 213.067 279.334 212.4C278.716 211.733 278.236 210.951 277.921 210.099C277.606 209.246 277.462 208.34 277.497 207.432C277.532 206.524 277.745 205.632 278.125 204.806L290.659 177.563C291.039 176.737 291.577 175.993 292.244 175.375C292.911 174.756 293.693 174.275 294.546 173.959C295.398 173.644 296.305 173.499 297.214 173.534C298.123 173.569 299.016 173.782 299.842 174.162C300.668 174.542 301.411 175.081 302.029 175.749C302.646 176.416 303.126 177.199 303.441 178.052C303.756 178.905 303.9 179.812 303.864 180.721C303.829 181.63 303.614 182.522 303.233 183.348L290.699 210.591C290.319 211.417 289.78 212.16 289.113 212.777C288.447 213.394 287.665 213.874 286.812 214.19C285.96 214.505 285.054 214.649 284.146 214.614C283.238 214.579 282.345 214.365 281.52 213.985Z" fill="#2F2E41"/>
<path d="M210.327 207.918C210.327 207.009 210.506 206.109 210.853 205.27C211.201 204.43 211.711 203.667 212.353 203.025C212.996 202.382 213.759 201.872 214.599 201.524C215.438 201.177 216.338 200.998 217.247 200.998L247.235 200.998C249.069 201 250.827 201.73 252.123 203.028C253.419 204.325 254.147 206.084 254.147 207.918C254.147 209.752 253.419 211.511 252.123 212.808C250.827 214.106 249.069 214.836 247.235 214.838L217.247 214.838C216.338 214.838 215.438 214.659 214.599 214.312C213.759 213.964 212.996 213.454 212.353 212.811C211.711 212.169 211.201 211.406 210.853 210.566C210.506 209.727 210.327 208.827 210.327 207.918Z" fill="#2F2E41"/>
<path d="M406.404 290.967C407.516 291.365 408.713 291.469 409.877 291.268L432.034 287.502L454.191 283.735C455.388 283.532 456.509 283.017 457.444 282.243C458.378 281.469 459.092 280.462 459.514 279.324C459.936 278.187 460.051 276.958 459.848 275.761C459.645 274.565 459.13 273.443 458.356 272.509L444.015 255.204L435.693 245.161C436.719 238.174 436.612 231.067 435.376 224.114L444.015 213.688L458.356 196.383C459.13 195.448 459.645 194.326 459.848 193.13C460.051 191.934 459.936 190.705 459.514 189.567C459.092 188.43 458.378 187.423 457.444 186.649C456.509 185.874 455.388 185.36 454.191 185.156L432.034 181.39L409.877 177.624C408.93 177.457 407.958 177.494 407.026 177.73C406.094 177.967 405.222 178.399 404.469 178.997C394.354 172.88 382.785 169.586 370.966 169.457C359.146 169.328 347.508 172.369 337.263 178.264C327.017 184.158 318.538 192.691 312.709 202.974C306.88 213.257 303.913 224.914 304.117 236.732C304.321 248.551 307.689 260.099 313.87 270.174C320.051 280.249 328.82 288.484 339.263 294.021C349.706 299.558 361.442 302.196 373.25 301.658C385.058 301.121 396.506 297.429 406.404 290.967L406.404 290.967Z" fill="#2F2E41"/>
<path d="M448.484 272.071L431.094 251.086L431.094 251.085C430.71 250.623 430.212 250.269 429.649 250.061C429.085 249.852 428.477 249.795 427.885 249.895C427.293 249.996 426.737 250.251 426.275 250.634C425.812 251.017 425.459 251.516 425.25 252.079L415.771 277.632C415.562 278.195 415.505 278.804 415.605 279.396C415.706 279.988 415.961 280.544 416.344 281.006C416.727 281.469 417.226 281.822 417.789 282.031C418.352 282.24 418.961 282.297 419.553 282.197L446.422 277.629C447.016 277.532 447.573 277.278 448.036 276.895C448.499 276.511 448.852 276.01 449.058 275.445C449.201 275.061 449.275 274.654 449.276 274.243C449.274 273.449 448.994 272.68 448.484 272.071Z" fill="white"/>
<path d="M449.058 193.446C448.852 192.881 448.499 192.381 448.036 191.997C447.573 191.613 447.016 191.359 446.422 191.262L419.553 186.695C418.961 186.594 418.352 186.651 417.789 186.86C417.226 187.069 416.727 187.423 416.344 187.885C415.961 188.348 415.706 188.903 415.605 189.496C415.505 190.088 415.562 190.696 415.771 191.259L425.25 216.813C425.459 217.376 425.812 217.874 426.275 218.257C426.737 218.641 427.293 218.896 427.885 218.996C428.477 219.097 429.085 219.04 429.649 218.831C430.212 218.622 430.71 218.269 431.094 217.806L448.484 196.82C448.994 196.211 449.274 195.443 449.276 194.648C449.275 194.238 449.201 193.831 449.058 193.446Z" fill="white"/>
<path d="M351.809 235.599C351.809 240.695 355.94 244.826 361.036 244.826C366.132 244.826 370.263 240.695 370.263 235.599C370.263 230.503 366.132 226.372 361.036 226.372C355.94 226.372 351.809 230.503 351.809 235.599Z" fill="white"/>
<path d="M363.343 235.599C363.343 238.996 364.375 241.751 365.649 241.751C366.923 241.751 367.956 238.996 367.956 235.599C367.956 232.202 366.923 229.448 365.649 229.448C364.375 229.448 363.343 232.202 363.343 235.599Z" fill="#2F2E41"/>
<path d="M341.044 235.984C341.044 235.428 341.153 234.878 341.366 234.365C341.578 233.852 341.89 233.386 342.282 232.993C342.675 232.601 343.141 232.289 343.654 232.077C344.168 231.864 344.717 231.755 345.273 231.755L355.653 231.755L355.653 240.213L345.273 240.213C344.717 240.213 344.168 240.103 343.654 239.891C343.141 239.678 342.675 239.367 342.282 238.974C341.89 238.581 341.578 238.115 341.366 237.602C341.153 237.089 341.044 236.539 341.044 235.984Z" fill="#FF6584"/>
<path d="M460.314 235.086C459.394 235.529 458.464 235.96 457.516 236.365C446.387 241.137 434.157 242.746 422.172 241.016C423.428 240.15 424.737 239.24 426.06 238.315C437.562 240.297 449.385 239.182 460.314 235.086Z" fill="#2F2E41"/>
<path d="M451.856 228.166C450.936 228.609 450.006 229.04 449.058 229.445C437.928 234.217 425.698 235.826 413.714 234.095C414.97 233.23 416.278 232.32 417.601 231.394C429.104 233.376 440.926 232.262 451.856 228.166Z" fill="#2F2E41"/>
<path d="M420.367 206.83L432.765 207.805L445.163 208.779C445.832 208.832 446.476 209.06 447.029 209.44C447.583 209.821 448.026 210.34 448.315 210.946C448.605 211.552 448.729 212.223 448.676 212.893C448.624 213.562 448.396 214.206 448.016 214.759L440.972 225.009L435.829 232.494C436.389 232.972 436.839 233.566 437.147 234.235C437.456 234.904 437.615 235.632 437.615 236.368C437.615 237.105 437.456 237.833 437.147 238.501C436.839 239.17 436.389 239.764 435.829 240.243L440.972 247.727L448.016 257.977C448.396 258.53 448.624 259.174 448.676 259.844C448.729 260.513 448.605 261.184 448.315 261.791C448.026 262.397 447.583 262.916 447.029 263.296C446.476 263.676 445.832 263.904 445.163 263.957L432.765 264.932L420.367 265.907C419.697 265.959 419.026 265.835 418.42 265.546C417.814 265.257 417.294 264.813 416.914 264.26C416.534 263.706 416.306 263.063 416.253 262.393C416.201 261.724 416.325 261.052 416.614 260.446L421.969 249.222L426.369 239.999C425.888 239.524 425.506 238.959 425.246 238.336C424.985 237.713 424.851 237.044 424.851 236.368C424.851 235.693 424.985 235.024 425.246 234.4C425.506 233.777 425.888 233.212 426.369 232.737L421.969 223.515L416.614 212.29C416.325 211.684 416.201 211.013 416.253 210.343C416.306 209.674 416.534 209.03 416.914 208.477C417.294 207.923 417.814 207.48 418.42 207.191C419.026 206.901 419.697 206.777 420.367 206.83Z" fill="#001835"/>
<path d="M371.032 245.595C369.758 245.595 371.032 246.628 371.032 247.902C371.032 249.176 369.758 250.209 371.032 250.209C371.643 250.207 372.228 249.964 372.66 249.531C373.091 249.099 373.334 248.513 373.334 247.902C373.334 247.291 373.091 246.705 372.66 246.273C372.228 245.84 371.643 245.596 371.032 245.595Z" fill="white"/>
<path d="M371.032 225.603C369.758 225.603 371.032 224.57 371.032 223.296C371.032 222.022 369.758 220.99 371.032 220.99C371.643 220.991 372.228 221.234 372.66 221.667C373.091 222.099 373.334 222.685 373.334 223.296C373.334 223.907 373.091 224.493 372.66 224.926C372.228 225.358 371.643 225.602 371.032 225.603Z" fill="white"/>
<path d="M196.863 481.532L211.526 481.532L211.526 408.218L210.609 408.218L196.863 408.218L78.6439 408.218L63.9809 408.218L63.9809 422.881L63.9809 481.532L78.6439 481.532L78.6439 422.881L196.863 422.881L196.863 481.532Z" fill="#2F2E41"/>
<path d="M211.526 517.273L63.9812 517.273L63.9812 590.587L211.526 590.587L211.526 517.273ZM78.644 575.924L78.644 531.935L196.863 531.935L196.863 575.924L78.644 575.924Z" fill="#001835"/>
<path d="M78.6439 313.826L210.609 313.826L210.609 299.163L78.6439 299.163L63.9809 299.163L63.9809 313.826L63.9809 372.477L78.6439 372.477L78.6439 313.826Z" fill="#001835"/>
<path d="M196.863 266.172L211.526 266.172L211.526 192.858L210.609 192.858L196.863 192.858L145.543 192.858L130.88 192.858L78.6439 192.858L63.9809 192.858L63.9809 207.521L63.9809 266.172L78.6439 266.172L78.6439 207.521L130.88 207.521L130.88 266.172L145.543 266.172L145.543 207.521L196.863 207.521L196.863 266.172Z" fill="#2F2E41"/>
<path d="M196.863 839.854L211.526 839.854L211.526 766.54L210.609 766.54L196.863 766.54L145.543 766.54L130.88 766.54L78.6439 766.54L63.9809 766.54L63.9809 781.203L63.9809 839.854L78.6439 839.854L78.6439 781.203L130.88 781.203L130.88 839.854L145.543 839.854L145.543 781.203L196.863 781.203L196.863 839.854Z" fill="#001835"/>
<path d="M210.609 143.371L89.4239 143.371L128.084 104.71L127.995 104.622L128.077 104.54L88.5539 65.0171L211.067 65.0171L211.067 50.3541L64.4389 50.3541L64.4389 65.0171L67.8179 65.0171L107.43 104.629L68.6869 143.371L63.9809 143.371L63.9809 158.034L210.609 158.034L210.609 143.371Z" fill="#2F2E41"/>
<path d="M210.609 717.97L207.231 717.97L167.619 678.358L206.361 639.615L211.067 639.615L211.067 624.952L64.4389 624.952L64.4389 639.615L185.625 639.615L146.964 678.276L147.053 678.365L146.972 678.446L186.495 717.97L63.9809 717.97L63.9809 732.632L210.609 732.632L210.609 717.97Z" fill="#2F2E41"/>
<path d="M300.934 335.558C300.934 340.528 304.964 344.558 309.934 344.558C314.905 344.558 318.934 340.528 318.934 335.558C318.934 330.587 314.905 326.558 309.934 326.558C304.964 326.558 300.934 330.587 300.934 335.558Z" fill="#001835"/>
<path d="M200.934 113.558C200.934 118.528 204.964 122.558 209.934 122.558C214.905 122.558 218.934 118.528 218.934 113.558C218.934 108.587 214.905 104.558 209.934 104.558C204.964 104.558 200.934 108.587 200.934 113.558Z" fill="#001835"/>
<path d="M0.934326 291.558C0.934326 296.528 4.96376 300.558 9.93433 300.558C14.9049 300.558 18.9343 296.528 18.9343 291.558C18.9343 286.587 14.9049 282.558 9.93433 282.558C4.96376 282.558 0.934326 286.587 0.934326 291.558Z" fill="#001835"/>
<path d="M273.934 517.558C273.934 522.528 277.964 526.558 282.934 526.558C287.905 526.558 291.934 522.528 291.934 517.558C291.934 512.587 287.905 508.558 282.934 508.558C277.964 508.558 273.934 512.587 273.934 517.558Z" fill="#001835"/>
<path d="M8.93433 782.558C8.93433 787.528 12.9638 791.558 17.9343 791.558C22.9049 791.558 26.9343 787.528 26.9343 782.558C26.9343 777.587 22.9049 773.558 17.9343 773.558C12.9638 773.558 8.93433 777.587 8.93433 782.558Z" fill="#001835"/>
<path d="M244.934 791.558C244.934 796.528 248.964 800.558 253.934 800.558C258.905 800.558 262.934 796.528 262.934 791.558C262.934 786.587 258.905 782.558 253.934 782.558C248.964 782.558 244.934 786.587 244.934 791.558Z" fill="#001835"/>
<path d="M82.9343 677.558C82.9343 682.528 86.9638 686.558 91.9343 686.558C96.9049 686.558 100.934 682.528 100.934 677.558C100.934 672.587 96.9049 668.558 91.9343 668.558C86.9638 668.558 82.9343 672.587 82.9343 677.558Z" fill="#001835"/>
</g>
<defs>
<clipPath id="clip0">
<rect width="889.076" height="459.38" fill="white" transform="translate(460.314 0.482178) rotate(90)"/>
</clipPath>
</defs>
</svg>
